<svg xmlns="http://www.w3.org/2000/svg" viewBox="0 0 760 232" width="760" height="232" role="img"
 aria-label="A three-level B-tree with 33 keys, at most four per node. The root holds the keys 30 and 60 and has three children: [10, 20], [40, 50] and [70, 85]. Each of them has three leaves, nine in total, all at the same depth: [3, 5, 8], [12, 15, 18], [22, 25, 28], [33, 36], [42, 45, 48], [52, 55, 58], [62, 66], [73, 77, 81] and [88, 92, 96]. The path to find 45 is marked: at the root, 45 is between 30 and 60, so the search goes down the middle child; at [40, 50] it is between 40 and 50, so it goes down the middle child again; and the leaf [42, 45, 48] holds 45. Three pages, one per level. A note says each node is a page, that four keys fit here and about 400 in Postgres.">
<style>
  text { font-family: ui-sans-serif, system-ui, sans-serif; fill: #bbcabf; }
  .bx { fill: none; stroke: #86948a; stroke-width: 1; }
  .bx.m { stroke: #4edea3; fill: rgba(78,222,163,0.12); }
  .bx.w { stroke: #e8a24c; fill: rgba(232,162,76,0.12); }
  .bx.g { stroke: #3b3b3e; }
  .bx.f { stroke: #4edea3; fill: #4edea3; }
  .bx.s { stroke: none; fill: #3b3b3e; }
  .lb { font-size: 12.5px; font-weight: 600; }
  .sb { font-size: 11px; fill: #86948a; }
  .tx { font-size: 11.5px; }
  .tx.d { fill: #86948a; }
  .mo { font-family: ui-monospace, SFMono-Regular, Menlo, monospace; font-size: 11.5px; }
  .mo.k { fill: #131315; font-weight: 700; }
  .m { fill: #4edea3; }
  .w { fill: #e8a24c; }
  .sep { stroke: #2a2a2c; stroke-width: 1; }
  .ar { fill: none; stroke: #86948a; stroke-width: 1; marker-end: url(#a); }
  .ar.m { stroke: #4edea3; stroke-width: 1.6; marker-end: url(#am); }
  .ar.w { stroke: #e8a24c; stroke-width: 1.4; marker-end: url(#aw); }
  .ed { stroke: #3b3b3e; stroke-width: 1; }
  .gl { stroke: #2a2a2c; stroke-width: 1; }
  .pt { fill: none; stroke: #4edea3; stroke-width: 1.5; stroke-linejoin: round; }
  .tri { fill: rgba(232,162,76,0.06); stroke: #e8a24c; stroke-width: 1; }
  .lv { stroke: #3b3b3e; stroke-width: 1; stroke-dasharray: 2 3; }
</style>
<defs><marker id="a" viewBox="0 0 8 8" refX="7" refY="4" markerWidth="7" markerHeight="7" orient="auto-start-reverse"><path d="M0,0.5 L7.5,4 L0,7.5 z" fill="#86948a"/></marker><marker id="am" viewBox="0 0 8 8" refX="7" refY="4" markerWidth="7" markerHeight="7" orient="auto-start-reverse"><path d="M0,0.5 L7.5,4 L0,7.5 z" fill="#4edea3"/></marker><marker id="aw" viewBox="0 0 8 8" refX="7" refY="4" markerWidth="7" markerHeight="7" orient="auto-start-reverse"><path d="M0,0.5 L7.5,4 L0,7.5 z" fill="#e8a24c"/></marker></defs>
<text class="sb" x="0.0" y="59.0">root</text>
<text class="sb" x="0.0" y="127.0">level 2</text>
<text class="sb" x="0.0" y="195.0">leaves,</text>
<text class="sb" x="0.0" y="208.0">all at the</text>
<text class="sb" x="0.0" y="221.0">same depth</text>
<text class="tx m" x="0.0" y="14.0">finding 45: one page per level</text>
<rect class="bx " x="100.0" y="180.0" width="66.0" height="22.0" rx="3"/>
<text class="mo" x="111.0" y="195.0" style="text-anchor:middle">3</text>
<line class="ed" x1="122.0" y1="180.0" x2="122.0" y2="202.0"/>
<text class="mo" x="133.0" y="195.0" style="text-anchor:middle">5</text>
<line class="ed" x1="144.0" y1="180.0" x2="144.0" y2="202.0"/>
<text class="mo" x="155.0" y="195.0" style="text-anchor:middle">8</text>
<rect class="bx " x="175.0" y="180.0" width="66.0" height="22.0" rx="3"/>
<text class="mo" x="186.0" y="195.0" style="text-anchor:middle">12</text>
<line class="ed" x1="197.0" y1="180.0" x2="197.0" y2="202.0"/>
<text class="mo" x="208.0" y="195.0" style="text-anchor:middle">15</text>
<line class="ed" x1="219.0" y1="180.0" x2="219.0" y2="202.0"/>
<text class="mo" x="230.0" y="195.0" style="text-anchor:middle">18</text>
<rect class="bx " x="250.0" y="180.0" width="66.0" height="22.0" rx="3"/>
<text class="mo" x="261.0" y="195.0" style="text-anchor:middle">22</text>
<line class="ed" x1="272.0" y1="180.0" x2="272.0" y2="202.0"/>
<text class="mo" x="283.0" y="195.0" style="text-anchor:middle">25</text>
<line class="ed" x1="294.0" y1="180.0" x2="294.0" y2="202.0"/>
<text class="mo" x="305.0" y="195.0" style="text-anchor:middle">28</text>
<rect class="bx " x="336.0" y="180.0" width="44.0" height="22.0" rx="3"/>
<text class="mo" x="347.0" y="195.0" style="text-anchor:middle">33</text>
<line class="ed" x1="358.0" y1="180.0" x2="358.0" y2="202.0"/>
<text class="mo" x="369.0" y="195.0" style="text-anchor:middle">36</text>
<rect class="bx m" x="389.0" y="180.0" width="66.0" height="22.0" rx="3"/>
<text class="mo" x="400.0" y="195.0" style="text-anchor:middle">42</text>
<line class="ed" x1="411.0" y1="180.0" x2="411.0" y2="202.0"/>
<rect class="bx f" x="413.0" y="182.0" width="18.0" height="18.0" rx="2"/>
<text class="mo k" x="422.0" y="195.0" style="text-anchor:middle">45</text>
<line class="ed" x1="433.0" y1="180.0" x2="433.0" y2="202.0"/>
<text class="mo" x="444.0" y="195.0" style="text-anchor:middle">48</text>
<text class="sb m" x="422.0" y="217.0" style="text-anchor:middle">here it is</text>
<rect class="bx " x="464.0" y="180.0" width="66.0" height="22.0" rx="3"/>
<text class="mo" x="475.0" y="195.0" style="text-anchor:middle">52</text>
<line class="ed" x1="486.0" y1="180.0" x2="486.0" y2="202.0"/>
<text class="mo" x="497.0" y="195.0" style="text-anchor:middle">55</text>
<line class="ed" x1="508.0" y1="180.0" x2="508.0" y2="202.0"/>
<text class="mo" x="519.0" y="195.0" style="text-anchor:middle">58</text>
<rect class="bx " x="550.0" y="180.0" width="44.0" height="22.0" rx="3"/>
<text class="mo" x="561.0" y="195.0" style="text-anchor:middle">62</text>
<line class="ed" x1="572.0" y1="180.0" x2="572.0" y2="202.0"/>
<text class="mo" x="583.0" y="195.0" style="text-anchor:middle">66</text>
<rect class="bx " x="603.0" y="180.0" width="66.0" height="22.0" rx="3"/>
<text class="mo" x="614.0" y="195.0" style="text-anchor:middle">73</text>
<line class="ed" x1="625.0" y1="180.0" x2="625.0" y2="202.0"/>
<text class="mo" x="636.0" y="195.0" style="text-anchor:middle">77</text>
<line class="ed" x1="647.0" y1="180.0" x2="647.0" y2="202.0"/>
<text class="mo" x="658.0" y="195.0" style="text-anchor:middle">81</text>
<rect class="bx " x="678.0" y="180.0" width="66.0" height="22.0" rx="3"/>
<text class="mo" x="689.0" y="195.0" style="text-anchor:middle">88</text>
<line class="ed" x1="700.0" y1="180.0" x2="700.0" y2="202.0"/>
<text class="mo" x="711.0" y="195.0" style="text-anchor:middle">92</text>
<line class="ed" x1="722.0" y1="180.0" x2="722.0" y2="202.0"/>
<text class="mo" x="733.0" y="195.0" style="text-anchor:middle">96</text>
<rect class="bx " x="186.0" y="112.0" width="44.0" height="22.0" rx="3"/>
<text class="mo" x="197.0" y="127.0" style="text-anchor:middle">10</text>
<line class="ed" x1="208.0" y1="112.0" x2="208.0" y2="134.0"/>
<text class="mo" x="219.0" y="127.0" style="text-anchor:middle">20</text>
<path class="ar" d="M186.0,134.0 L133.0,178.0"/>
<path class="ar" d="M208.0,134.0 L208.0,178.0"/>
<path class="ar" d="M230.0,134.0 L283.0,178.0"/>
<rect class="bx m" x="411.0" y="112.0" width="44.0" height="22.0" rx="3"/>
<text class="mo" x="422.0" y="127.0" style="text-anchor:middle">40</text>
<line class="ed" x1="433.0" y1="112.0" x2="433.0" y2="134.0"/>
<text class="mo" x="444.0" y="127.0" style="text-anchor:middle">50</text>
<path class="ar" d="M411.0,134.0 L358.0,178.0"/>
<path class="ar m" d="M433.0,134.0 L422.0,178.0"/>
<path class="ar" d="M455.0,134.0 L497.0,178.0"/>
<text class="sb m" x="465.0" y="127.0">between 40 and 50</text>
<rect class="bx " x="625.0" y="112.0" width="44.0" height="22.0" rx="3"/>
<text class="mo" x="636.0" y="127.0" style="text-anchor:middle">70</text>
<line class="ed" x1="647.0" y1="112.0" x2="647.0" y2="134.0"/>
<text class="mo" x="658.0" y="127.0" style="text-anchor:middle">85</text>
<path class="ar" d="M625.0,134.0 L572.0,178.0"/>
<path class="ar" d="M647.0,134.0 L636.0,178.0"/>
<path class="ar" d="M669.0,134.0 L711.0,178.0"/>
<rect class="bx m" x="411.0" y="44.0" width="44.0" height="22.0" rx="3"/>
<text class="mo" x="422.0" y="59.0" style="text-anchor:middle">30</text>
<line class="ed" x1="433.0" y1="44.0" x2="433.0" y2="66.0"/>
<text class="mo" x="444.0" y="59.0" style="text-anchor:middle">60</text>
<path class="ar" d="M411.0,66.0 L208.0,110.0"/>
<path class="ar m" d="M433.0,66.0 L433.0,110.0"/>
<path class="ar" d="M455.0,66.0 L647.0,110.0"/>
<text class="sb m" x="465.0" y="59.0">between 30 and 60</text>
<path class="ar" d="M387.0,55.0 L407.0,55.0"/>
<text class="sb" x="383.0" y="42.0" style="text-anchor:end">each node is a page:</text>
<text class="sb" x="383.0" y="55.0" style="text-anchor:end">4 keys fit here;</text>
<text class="sb" x="383.0" y="68.0" style="text-anchor:end">about 400 in Postgres</text>
</svg>
