<?xml version="1.0"?>
<svg width="160" height="160" xmlns="http://www.w3.org/2000/svg" xmlns:svg="http://www.w3.org/2000/svg">
 <g class="layer">
  <title>Layer 1</title>
  <path d="m1.23,73.34c0.73,-3.77 1.16,-7.63 2.26,-11.3c1.55,-5.15 3.3,-10.29 5.49,-15.2c3.74,-8.39 9.41,-15.52 16.12,-21.72c7.8,-7.22 16.7,-12.89 26.77,-16.38c6.65,-2.31 13.49,-4.09 20.61,-4.4c0.35,-0.01 5.66,-0.27 14.57,0.28c7.95,0.5 16.58,2.64 23.8,5.59c3.9,1.59 7.6,3.71 11.22,5.87c2.49,1.49 4.69,3.45 7,5.23c1.69,1.32 3.54,2.51 4.99,4.06c3.54,3.81 7.31,7.5 10.21,11.77c3.62,5.37 7.1,10.88 9.27,17.14c5.37,15.55 4.14,29.47 4.14,30.99c-0.03,7.89 -2.29,15.29 -5.21,22.46c-3.51,8.58 -8.69,16.12 -15.12,22.88c-5.56,5.85 -11.89,10.57 -18.84,14.56c-8.22,4.72 -17.12,7.55 -26.4,9.08c-4.6,0.76 -9.38,1.23 -14.01,0.9c-6.56,-0.46 -13.09,-1.12 -19.59,-2.83c-11.17,-2.91 -21.04,-8.05 -29.78,-15.24c-4.91,-4.04 -9.32,-8.91 -13.1,-14.05c-3.68,-4.98 -6.68,-10.59 -9.2,-16.27c-2.75,-6.21 -4.74,-17.32 -5.12,-20.16c-0.59,-3.83 -0.4,-5.74 -0.5,-7.53c-0.1,-2 0.3,-3.38 0.42,-5.73m52.84,-50.69c-11.26,5.36 -19.24,12.05 -23.97,17.81c-6.9,8.41 -10.39,15.79 -13.64,29.38c-0.62,2.58 -1.5,3.02 0.5,3.04c3.46,0.02 19.59,-0.34 23.36,-0.22c1.77,0.04 -2.15,-21.43 8.77,-40.75m54.24,40.68c13.38,0 26.77,0 40.17,0c-1.69,-18.08 -14.84,-40.17 -38.11,-49.32c0.97,2.07 1.88,4.1 2.85,6.11c4.45,9.14 6.41,19 8.24,28.89c0.08,0.46 -0.96,1.6 -1.51,1.62c-3.57,0.14 -7.16,0.14 -10.74,0.01c-0.57,-0.02 -1.41,-0.75 -1.63,-1.34c-0.49,-1.33 -0.74,-2.77 -0.98,-4.19c-1.47,-9.01 -3.8,-17.75 -8.48,-25.66c-1.61,-2.73 -3.6,-5.37 -5.92,-7.52c-3.21,-2.97 -7.94,-4.65 -12.51,-1.95c-4.43,2.61 -7.24,6.53 -9.51,10.87c-3.95,7.57 -6.47,15.64 -7.5,24.12c-0.89,7.36 -1.96,14.73 -2.23,22.12c-0.24,6.6 0.31,13.26 0.88,19.86c0.41,4.68 1.3,9.33 2.21,13.95c1.18,6.01 3.31,11.7 5.91,17.28c1.66,3.54 3.56,6.76 6.12,9.7c3.94,4.52 12.42,5.52 17.57,0.08c4.69,-4.97 7.45,-10.96 9.72,-17.28c3.08,-8.55 4.37,-17.47 5.55,-26.41c0.3,-2.26 0.05,-4.59 0.05,-7.01c-11.69,0 -23.03,0 -34.46,0c0,-4.67 0,-9.22 0,-13.87m-23.98,39.46c-0.45,-1.83 -1.07,-3.63 -1.33,-5.49c-0.93,-6.62 -1.73,-13.25 -2.58,-19.92c-8.48,0 -16.93,0 -25.39,0c1.89,21.75 18.31,41.82 38.33,49.24c-1.03,-2.01 -2.18,-3.78 -2.88,-5.72c-2.14,-5.87 -4.09,-11.81 -6.15,-18.11m63.87,22.16c21.64,-10.08 33.32,-31.56 34.53,-47.58c-8.45,0 -16.9,0 -25.61,0c-1.03,17.25 -4.22,33.9 -12.86,49.65c1.08,-0.57 1.54,-0.84 2.02,-1.08c0.54,-0.27 1.09,-0.52 1.92,-0.99" fill="#18d26e" id="svg_1" opacity="1"/>
 </g>
</svg>